<svg width="19" height="19" viewBox="0 0 19 19" fill="none" xmlns="http://www.w3.org/2000/svg">
<path fill-rule="evenodd" clip-rule="evenodd" d="M0 9.5C0 4.25315 4.25315 0 9.5 0C14.7468 0 19 4.25315 19 9.5C19 14.7468 14.7468 19 9.5 19C4.25315 19 0 14.7468 0 9.5ZM4.12599 14.874C2.70071 13.4487 1.9 11.5156 1.9 9.5C1.9 7.48435 2.70071 5.55126 4.12599 4.12599C5.55126 2.70071 7.48435 1.9 9.5 1.9C11.037 1.9 12.526 2.36557 13.7784 3.21862L5.78873 16.1322C5.18454 15.7942 4.62423 15.3723 4.12599 14.874Z" fill="black"/>
</svg>
