<?xml version="1.0" standalone="no"?>
<!DOCTYPE svg PUBLIC "-//W3C//DTD SVG 20010904//EN"
 "http://www.w3.org/TR/2001/REC-SVG-20010904/DTD/svg10.dtd">
<svg version="1.0" xmlns="http://www.w3.org/2000/svg"
 width="160.000000pt" height="160.000000pt" viewBox="0 0 160.000000 160.000000"
 preserveAspectRatio="xMidYMid meet">
<metadata>
Created by potrace 1.14, written by Peter Selinger 2001-2017
</metadata>
<g transform="translate(0.000000,160.000000) scale(0.100000,-0.100000)"
fill="#000000" stroke="none">
<path d="M982 1306 c-84 -38 -97 -48 -88 -71 8 -21 27 -18 126 25 73 31 77 32
110 16 19 -8 43 -21 52 -28 25 -18 35 -1 18 29 -19 33 -75 63 -115 62 -16 0
-63 -15 -103 -33z"/>
<path d="M249 1303 c-13 -16 -12 -17 4 -4 9 7 17 15 17 17 0 8 -8 3 -21 -13z"/>
<path d="M1340 1306 c0 -2 8 -10 18 -17 15 -13 16 -12 3 4 -13 16 -21 21 -21
13z"/>
<path d="M160 1171 c-47 -93 -72 -193 -77 -306 -6 -142 12 -230 73 -355 40
-81 60 -109 138 -185 73 -73 107 -99 176 -132 124 -61 194 -77 330 -77 136 0
208 16 325 74 350 172 494 596 325 958 -16 34 -31 62 -34 62 -3 0 6 -25 20
-55 54 -118 59 -336 10 -480 -61 -181 -190 -335 -347 -413 -122 -61 -189 -75
-329 -69 -186 8 -308 65 -449 212 -144 150 -210 329 -198 540 7 123 12 146 42
213 28 61 25 70 -5 13z"/>
<path d="M417 1125 c-37 -25 -47 -48 -27 -60 6 -4 16 -2 23 3 7 5 28 15 48 21
31 10 47 8 118 -14 96 -31 135 -30 139 2 3 18 -3 23 -25 28 -15 3 -61 14 -100
25 -96 26 -131 25 -176 -5z"/>
<path d="M990 1070 c-52 -56 -49 -176 7 -219 34 -28 47 -26 85 8 32 28 33 32
33 106 0 74 -1 78 -33 106 -41 37 -57 36 -92 -1z"/>
<path d="M509 1005 c-14 -8 -32 -28 -39 -45 -31 -74 59 -148 133 -108 33 17
46 39 47 79 0 65 -81 108 -141 74z"/>
<path d="M470 660 c-8 -14 -8 -26 0 -40 10 -19 21 -20 330 -20 l320 0 6 25
c14 54 9 55 -332 55 -303 0 -314 -1 -324 -20z"/>
</g>
</svg>
