<svg width="20" height="19" viewBox="0 0 20 19" fill="none" xmlns="http://www.w3.org/2000/svg">
<path d="M2.5 18.2151C1.83696 18.2151 1.20107 17.9517 0.732233 17.4829C0.263392 17.014 0 16.3782 0 15.7151V12.1437C4.23432e-09 11.8595 0.112882 11.587 0.313814 11.3861C0.514746 11.1851 0.787268 11.0723 1.07143 11.0723C1.35559 11.0723 1.62811 11.1851 1.82904 11.3861C2.02997 11.587 2.14286 11.8595 2.14286 12.1437V15.7151C2.14286 15.9123 2.30286 16.0723 2.5 16.0723H17.5C17.5947 16.0723 17.6856 16.0346 17.7525 15.9677C17.8195 15.9007 17.8571 15.8098 17.8571 15.7151V12.1437C17.8571 11.8595 17.97 11.587 18.171 11.3861C18.3719 11.1851 18.6444 11.0723 18.9286 11.0723C19.2127 11.0723 19.4853 11.1851 19.6862 11.3861C19.8871 11.587 20 11.8595 20 12.1437V15.7151C20 16.3782 19.7366 17.014 19.2678 17.4829C18.7989 17.9517 18.163 18.2151 17.5 18.2151H2.5Z" fill="black"/>
<path d="M8.92857 9.19857V1.07143C8.92857 0.787268 9.04145 0.514746 9.24238 0.313814C9.44331 0.112882 9.71584 0 10 0C10.2842 0 10.5567 0.112882 10.7576 0.313814C10.9585 0.514746 11.0714 0.787268 11.0714 1.07143V9.19857L13.8857 6.38571C13.9851 6.28628 14.1032 6.20741 14.2331 6.1536C14.363 6.09979 14.5022 6.0721 14.6429 6.0721C14.7835 6.0721 14.9227 6.09979 15.0526 6.1536C15.1825 6.20741 15.3006 6.28628 15.4 6.38571C15.4994 6.48514 15.5783 6.60318 15.6321 6.73309C15.6859 6.86301 15.7136 7.00224 15.7136 7.14286C15.7136 7.28347 15.6859 7.42271 15.6321 7.55262C15.5783 7.68253 15.4994 7.80057 15.4 7.9L10.7571 12.5429C10.5562 12.7435 10.2839 12.8562 10 12.8562C9.71607 12.8562 9.44375 12.7435 9.24285 12.5429L4.6 7.9C4.50057 7.80057 4.42169 7.68253 4.36788 7.55262C4.31407 7.42271 4.28638 7.28347 4.28638 7.14286C4.28638 7.00224 4.31407 6.86301 4.36788 6.73309C4.42169 6.60318 4.50057 6.48514 4.6 6.38571C4.69942 6.28628 4.81747 6.20741 4.94738 6.1536C5.07729 6.09979 5.21652 6.0721 5.35714 6.0721C5.49775 6.0721 5.63699 6.09979 5.7669 6.1536C5.89681 6.20741 6.01485 6.28628 6.11428 6.38571L8.92857 9.19857Z" fill="black"/>
</svg>
