<svg width="19" height="19" viewBox="0 0 19 19" fill="none" xmlns="http://www.w3.org/2000/svg">
<path d="M8.55 8.53021C8.55 8.27825 8.65009 8.03661 8.82825 7.85845C9.00641 7.68029 9.24805 7.58021 9.5 7.58021C9.75196 7.58021 9.99359 7.68029 10.1718 7.85845C10.3499 8.03661 10.45 8.27825 10.45 8.53021V14.2302C10.45 14.4822 10.3499 14.7238 10.1718 14.902C9.99359 15.0801 9.75196 15.1802 9.5 15.1802C9.24805 15.1802 9.00641 15.0801 8.82825 14.902C8.65009 14.7238 8.55 14.4822 8.55 14.2302V8.53021ZM9.5 3.84766C9.24805 3.84766 9.00641 3.94774 8.82825 4.1259C8.65009 4.30406 8.55 4.5457 8.55 4.79766C8.55 5.04961 8.65009 5.29125 8.82825 5.46941C9.00641 5.64757 9.24805 5.74766 9.5 5.74766C9.75196 5.74766 9.99359 5.64757 10.1718 5.46941C10.3499 5.29125 10.45 5.04961 10.45 4.79766C10.45 4.5457 10.3499 4.30406 10.1718 4.1259C9.99359 3.94774 9.75196 3.84766 9.5 3.84766Z" fill="black"/>
<path fill-rule="evenodd" clip-rule="evenodd" d="M9.5 0C4.25315 0 0 4.25315 0 9.5C0 14.7468 4.25315 19 9.5 19C14.7468 19 19 14.7468 19 9.5C19 4.25315 14.7468 0 9.5 0ZM1.9 9.5C1.9 11.5156 2.70071 13.4487 4.12599 14.874C5.55126 16.2993 7.48435 17.1 9.5 17.1C11.5156 17.1 13.4487 16.2993 14.874 14.874C16.2993 13.4487 17.1 11.5156 17.1 9.5C17.1 7.48435 16.2993 5.55126 14.874 4.12599C13.4487 2.70071 11.5156 1.9 9.5 1.9C7.48435 1.9 5.55126 2.70071 4.12599 4.12599C2.70071 5.55126 1.9 7.48435 1.9 9.5Z" fill="black"/>
</svg>
